<?xml version="1.0" encoding="utf-8"?>
<!-- Generator: Adobe Illustrator 26.1.0, SVG Export Plug-In . SVG Version: 6.00 Build 0)  -->
<svg version="1.1" id="Layer_1" xmlns="http://www.w3.org/2000/svg" xmlns:xlink="http://www.w3.org/1999/xlink" x="0px" y="0px"
	 viewBox="0 0 612.5877075 104.2387848" style="enable-background:new 0 0 612.5877075 104.2387848;" xml:space="preserve">
<style type="text/css">
	.st0{fill:#7D2AE7;}
	.st1{fill:url(#SVGID_1_);}
	.st2{fill:url(#SVGID_00000135652588883783653320000004652133902392652686_);}
	.st3{fill:url(#SVGID_00000175295429463437184640000007174656943323174053_);}
	.st4{fill:url(#SVGID_00000062156989192436443220000016426266846578578598_);}
	.st5{fill:url(#SVGID_00000101790235423390192320000004914014499208896681_);}
	.st6{fill:#C11F1F;}
</style>
<g>
	<path class="st0" d="M241.3110046,79.5367737c-0.4129944,0-0.7900085,0.2670135-0.9840088,0.8270111
		c-2.4909973,7.1190033-5.8559875,11.3529968-8.6260071,11.3529968c-1.59198,0-2.2359924-1.776001-2.2359924-4.5630035
		c0-6.9720001,4.1669922-21.7569962,6.2690125-28.4979973c0.242981-0.8159943,0.401001-1.5459976,0.401001-2.1659927
		c0-1.9600067-1.0690002-2.9210052-3.7180176-2.9210052c-2.8549805,0-5.9289856,1.1200027-8.9179993,6.3639984
		c-1.0319824-4.6240005-4.1549988-6.6439972-8.5169983-6.6439972c-5.0419922,0-9.9140015,3.2490005-13.923996,8.5179977
		c-4.0090027,5.2689934-8.7229919,6.9970055-12.2709961,6.1450005c2.5509949-6.253994,3.4989929-10.9269981,3.4989929-14.3950005
		c0-5.4389954-2.6849976-8.7249985-7.022995-8.7249985c-6.5970001,0-10.3999939,6.3030014-10.3999939,12.9349976
		c0,5.1230011,2.3199921,10.3920021,7.4229889,12.9480019c-4.276001,9.6860046-10.5209961,18.446991-12.8909912,18.446991
		c-3.0620117,0-3.9609985-15.0039978-3.7900085-25.7359886c0.1090088-6.1579971,0.6190033-6.473999,0.6190033-8.3359985
		c0-1.0709991-0.6920013-1.8010025-3.4750061-1.8010025c-6.4879913,0-8.4929962,5.5-8.79599,11.8159981
		c-0.0980072,2.3970032-0.473999,4.7819977-1.1179962,7.0939941C150.125,81.8847809,144.5359955,89.234787,140.8910065,89.234787
		c-1.6880035,0-2.1500092-1.6910095-2.1500092-3.9060059c0-6.9730072,3.9000092-15.6849976,3.9000092-23.1199989
		c0-5.4639969-2.3940125-8.9199982-6.901001-8.9199982c-5.3100128,0-12.3320007,6.3280029-18.9790039,18.1799965
		c2.1880035-9.0779991,3.0870056-17.8629951-3.3890076-17.8629951c-1.4099884,0.0240021-2.7829895,0.3769989-4.0219879,1.0459976
		c-0.8500061,0.4020004-1.3730011,1.2779999-1.3120117,2.215004c0.6190033,9.6619911-7.776001,34.4119911-15.7339935,34.4119911
		c-1.4459991,0-2.151001-1.5690002-2.151001-4.1009979c0-6.9839935,4.1549988-21.7320023,6.2449951-28.4859962
		c0.2669983-0.8759995,0.4130096-1.6309967,0.4130096-2.288002c0-1.848999-1.1419983-2.7979965-3.730011-2.7979965
		c-2.8429871,0-5.9290009,1.0830002-8.9059906,6.3269958c-1.0449982-4.6240005-4.1670074-6.6439972-8.5289993-6.6439972
		c-7.1560059,0-15.151001,7.5810013-18.6620026,17.4619942C52.2809982,83.9417877,42.8044968,96.681778,30.0469971,96.681778
		c-11.5789948,0-17.6904984-9.6499939-17.6904984-24.8970032c0-22.0119896,16.1352997-39.9974976,28.1030045-39.9974976
		c5.7226944,0,8.456398,3.6506062,8.456398,9.2485065c0,6.7770004-3.7787018,9.9290009-3.7787018,12.5089951
		c0,0.7910004,0.6562042,1.5700073,1.9561996,1.5700073c5.2005997,0,11.3236008-6.1210022,11.3236008-14.4690018
		c0-8.3474045-6.7669983-14.4560032-18.7350998-14.4560032C19.9017029,26.1897831,0,46.1217842,0,71.6637878
		c0,20.3209991,10.0116005,32.5749969,27.3253021,32.5749969c11.8098984,0,22.1251984-9.1999969,27.6896973-19.9320068
		c0.6320038,8.8950043,4.6660004,13.5429993,10.814003,13.5429993c5.4669952,0,9.8899994-3.2610016,13.2669907-8.9919891
		c1.3010101,5.9989929,4.7510071,8.9309998,9.2340088,8.9309998c5.1399994,0,9.4409943-3.2610016,13.5359955-9.3210144
		c-0.0610046,4.7580109,1.0200043,9.2360077,5.1390076,9.2360077c1.9440002,0,4.2649994-0.4499969,4.6779938-2.154007
		c4.3370056-17.9599915,15.0540009-32.6229897,18.3339996-32.6229897c0.9720001,0,1.2389984,0.9369965,1.2389984,2.0439949
		c0,4.8800049-3.4380035,14.8820038-3.4380035,21.2709961c0,6.8990021,2.928009,11.4620056,8.9790039,11.4620056
		c6.7070007,0,13.5230103-8.2259979,18.0670013-20.2480011c1.4210052,11.2310028,4.4949951,20.2969971,9.3070068,20.2969971
		c5.9049988,0,16.3899994-12.447998,22.7449951-25.6269989c2.4900055,0.3160095,6.2330017,0.2310028,9.8289948-2.3119965
		c-1.5309906,3.8820038-2.4299927,8.1289978-2.4299927,12.375c0,12.2299957,5.8320007,15.6609955,10.8499908,15.6609955
		c5.4550018,0,9.878006-3.2610016,13.2680206-8.9919891c1.117981,5.17099,3.9729919,8.9189911,9.2219849,8.9189911
		C235.8680115,97.7767792,243,89.3687744,243,82.4687805C243,80.6437836,242.2219849,79.5367737,241.3110046,79.5367737z
		 M70.8349991,91.0717773c-3.3170013,0-4.6179962-3.345993-4.6179962-8.3349915c0-8.6640015,5.9179993-23.132,12.1749954-23.132
		c2.7340088,0,3.7660065,3.223999,3.7660065,7.1669884C82.1580048,75.5697784,76.5329971,91.0717773,70.8349991,91.0717773z
		 M184.4490051,65.2137833c-1.980011-2.3599968-2.6970062-5.5730019-2.6970062-8.4319954
		c0-3.529007,1.2879944-6.5110016,2.8309937-6.5110016c1.5430145,0,2.0170135,1.5219955,2.0170135,3.6389999
		C186.6000061,57.4507866,185.3359985,62.6217842,184.4490051,65.2137833z M210.17099,91.0717773
		c-3.3169861,0-4.6169891-3.8450012-4.6169891-8.3349915c0-8.3600006,5.9170074-23.132,12.2230072-23.132
		c2.7330017,0,3.7049866,3.1999969,3.7049866,7.1669884C221.4819946,75.5697784,215.95401,91.0717773,210.17099,91.0717773z"/>
	
		<radialGradient id="SVGID_1_" cx="-562.0922241" cy="907.102417" r="1" gradientTransform="matrix(51.0299568 -52.5678749 -34.934269 -33.9122391 60496.9179688 1326.5887451)" gradientUnits="userSpaceOnUse">
		<stop  offset="0" style="stop-color:#6420FF"/>
		<stop  offset="1" style="stop-color:#6420FF;stop-opacity:0"/>
	</radialGradient>
	<path class="st1" d="M241.3110046,79.5367737c-0.4129944,0-0.7900085,0.2670135-0.9840088,0.8270111
		c-2.4909973,7.1190033-5.8559875,11.3529968-8.6260071,11.3529968c-1.59198,0-2.2359924-1.776001-2.2359924-4.5630035
		c0-6.9720001,4.1669922-21.7569962,6.2690125-28.4979973c0.242981-0.8159943,0.401001-1.5459976,0.401001-2.1659927
		c0-1.9600067-1.0690002-2.9210052-3.7180176-2.9210052c-2.8549805,0-5.9289856,1.1200027-8.9179993,6.3639984
		c-1.0319824-4.6240005-4.1549988-6.6439972-8.5169983-6.6439972c-5.0419922,0-9.9140015,3.2490005-13.923996,8.5179977
		c-4.0090027,5.2689934-8.7229919,6.9970055-12.2709961,6.1450005c2.5509949-6.253994,3.4989929-10.9269981,3.4989929-14.3950005
		c0-5.4389954-2.6849976-8.7249985-7.022995-8.7249985c-6.5970001,0-10.3999939,6.3030014-10.3999939,12.9349976
		c0,5.1230011,2.3199921,10.3920021,7.4229889,12.9480019c-4.276001,9.6860046-10.5209961,18.446991-12.8909912,18.446991
		c-3.0620117,0-3.9609985-15.0039978-3.7900085-25.7359886c0.1090088-6.1579971,0.6190033-6.473999,0.6190033-8.3359985
		c0-1.0709991-0.6920013-1.8010025-3.4750061-1.8010025c-6.4879913,0-8.4929962,5.5-8.79599,11.8159981
		c-0.0980072,2.3970032-0.473999,4.7819977-1.1179962,7.0939941C150.125,81.8847809,144.5359955,89.234787,140.8910065,89.234787
		c-1.6880035,0-2.1500092-1.6910095-2.1500092-3.9060059c0-6.9730072,3.9000092-15.6849976,3.9000092-23.1199989
		c0-5.4639969-2.3940125-8.9199982-6.901001-8.9199982c-5.3100128,0-12.3320007,6.3280029-18.9790039,18.1799965
		c2.1880035-9.0779991,3.0870056-17.8629951-3.3890076-17.8629951c-1.4099884,0.0240021-2.7829895,0.3769989-4.0219879,1.0459976
		c-0.8500061,0.4020004-1.3730011,1.2779999-1.3120117,2.215004c0.6190033,9.6619911-7.776001,34.4119911-15.7339935,34.4119911
		c-1.4459991,0-2.151001-1.5690002-2.151001-4.1009979c0-6.9839935,4.1549988-21.7320023,6.2449951-28.4859962
		c0.2669983-0.8759995,0.4130096-1.6309967,0.4130096-2.288002c0-1.848999-1.1419983-2.7979965-3.730011-2.7979965
		c-2.8429871,0-5.9290009,1.0830002-8.9059906,6.3269958c-1.0449982-4.6240005-4.1670074-6.6439972-8.5289993-6.6439972
		c-7.1560059,0-15.151001,7.5810013-18.6620026,17.4619942C52.2809982,83.9417877,42.8044968,96.681778,30.0469971,96.681778
		c-11.5789948,0-17.6904984-9.6499939-17.6904984-24.8970032c0-22.0119896,16.1352997-39.9974976,28.1030045-39.9974976
		c5.7226944,0,8.456398,3.6506062,8.456398,9.2485065c0,6.7770004-3.7787018,9.9290009-3.7787018,12.5089951
		c0,0.7910004,0.6562042,1.5700073,1.9561996,1.5700073c5.2005997,0,11.3236008-6.1210022,11.3236008-14.4690018
		c0-8.3474045-6.7669983-14.4560032-18.7350998-14.4560032C19.9017029,26.1897831,0,46.1217842,0,71.6637878
		c0,20.3209991,10.0116005,32.5749969,27.3253021,32.5749969c11.8098984,0,22.1251984-9.1999969,27.6896973-19.9320068
		c0.6320038,8.8950043,4.6660004,13.5429993,10.814003,13.5429993c5.4669952,0,9.8899994-3.2610016,13.2669907-8.9919891
		c1.3010101,5.9989929,4.7510071,8.9309998,9.2340088,8.9309998c5.1399994,0,9.4409943-3.2610016,13.5359955-9.3210144
		c-0.0610046,4.7580109,1.0200043,9.2360077,5.1390076,9.2360077c1.9440002,0,4.2649994-0.4499969,4.6779938-2.154007
		c4.3370056-17.9599915,15.0540009-32.6229897,18.3339996-32.6229897c0.9720001,0,1.2389984,0.9369965,1.2389984,2.0439949
		c0,4.8800049-3.4380035,14.8820038-3.4380035,21.2709961c0,6.8990021,2.928009,11.4620056,8.9790039,11.4620056
		c6.7070007,0,13.5230103-8.2259979,18.0670013-20.2480011c1.4210052,11.2310028,4.4949951,20.2969971,9.3070068,20.2969971
		c5.9049988,0,16.3899994-12.447998,22.7449951-25.6269989c2.4900055,0.3160095,6.2330017,0.2310028,9.8289948-2.3119965
		c-1.5309906,3.8820038-2.4299927,8.1289978-2.4299927,12.375c0,12.2299957,5.8320007,15.6609955,10.8499908,15.6609955
		c5.4550018,0,9.878006-3.2610016,13.2680206-8.9919891c1.117981,5.17099,3.9729919,8.9189911,9.2219849,8.9189911
		C235.8680115,97.7767792,243,89.3687744,243,82.4687805C243,80.6437836,242.2219849,79.5367737,241.3110046,79.5367737z
		 M70.8349991,91.0717773c-3.3170013,0-4.6179962-3.345993-4.6179962-8.3349915c0-8.6640015,5.9179993-23.132,12.1749954-23.132
		c2.7340088,0,3.7660065,3.223999,3.7660065,7.1669884C82.1580048,75.5697784,76.5329971,91.0717773,70.8349991,91.0717773z
		 M184.4490051,65.2137833c-1.980011-2.3599968-2.6970062-5.5730019-2.6970062-8.4319954
		c0-3.529007,1.2879944-6.5110016,2.8309937-6.5110016c1.5430145,0,2.0170135,1.5219955,2.0170135,3.6389999
		C186.6000061,57.4507866,185.3359985,62.6217842,184.4490051,65.2137833z M210.17099,91.0717773
		c-3.3169861,0-4.6169891-3.8450012-4.6169891-8.3349915c0-8.3600006,5.9170074-23.132,12.2230072-23.132
		c2.7330017,0,3.7049866,3.1999969,3.7049866,7.1669884C221.4819946,75.5697784,215.95401,91.0717773,210.17099,91.0717773z"/>
	
		<radialGradient id="SVGID_00000104678460623853918010000009715365890082025917_" cx="-562.3291016" cy="915.675293" r="1" gradientTransform="matrix(141.91185 12.6552086 10.1016054 -113.276474 70557.203125 110919.015625)" gradientUnits="userSpaceOnUse">
		<stop  offset="0.25" style="stop-color:#00C4CC"/>
		<stop  offset="1" style="stop-color:#00C4CC;stop-opacity:0"/>
	</radialGradient>
	<path style="fill:url(#SVGID_00000104678460623853918010000009715365890082025917_);" d="M241.3110046,79.5367737
		c-0.4129944,0-0.7900085,0.2670135-0.9840088,0.8270111c-2.4909973,7.1190033-5.8559875,11.3529968-8.6260071,11.3529968
		c-1.59198,0-2.2359924-1.776001-2.2359924-4.5630035c0-6.9720001,4.1669922-21.7569962,6.2690125-28.4979973
		c0.242981-0.8159943,0.401001-1.5459976,0.401001-2.1659927c0-1.9600067-1.0690002-2.9210052-3.7180176-2.9210052
		c-2.8549805,0-5.9289856,1.1200027-8.9179993,6.3639984c-1.0319824-4.6240005-4.1549988-6.6439972-8.5169983-6.6439972
		c-5.0419922,0-9.9140015,3.2490005-13.923996,8.5179977c-4.0090027,5.2689934-8.7229919,6.9970055-12.2709961,6.1450005
		c2.5509949-6.253994,3.4989929-10.9269981,3.4989929-14.3950005c0-5.4389954-2.6849976-8.7249985-7.022995-8.7249985
		c-6.5970001,0-10.3999939,6.3030014-10.3999939,12.9349976c0,5.1230011,2.3199921,10.3920021,7.4229889,12.9480019
		c-4.276001,9.6860046-10.5209961,18.446991-12.8909912,18.446991c-3.0620117,0-3.9609985-15.0039978-3.7900085-25.7359886
		c0.1090088-6.1579971,0.6190033-6.473999,0.6190033-8.3359985c0-1.0709991-0.6920013-1.8010025-3.4750061-1.8010025
		c-6.4879913,0-8.4929962,5.5-8.79599,11.8159981c-0.0980072,2.3970032-0.473999,4.7819977-1.1179962,7.0939941
		C150.125,81.8847809,144.5359955,89.234787,140.8910065,89.234787c-1.6880035,0-2.1500092-1.6910095-2.1500092-3.9060059
		c0-6.9730072,3.9000092-15.6849976,3.9000092-23.1199989c0-5.4639969-2.3940125-8.9199982-6.901001-8.9199982
		c-5.3100128,0-12.3320007,6.3280029-18.9790039,18.1799965c2.1880035-9.0779991,3.0870056-17.8629951-3.3890076-17.8629951
		c-1.4099884,0.0240021-2.7829895,0.3769989-4.0219879,1.0459976c-0.8500061,0.4020004-1.3730011,1.2779999-1.3120117,2.215004
		c0.6190033,9.6619911-7.776001,34.4119911-15.7339935,34.4119911c-1.4459991,0-2.151001-1.5690002-2.151001-4.1009979
		c0-6.9839935,4.1549988-21.7320023,6.2449951-28.4859962c0.2669983-0.8759995,0.4130096-1.6309967,0.4130096-2.288002
		c0-1.848999-1.1419983-2.7979965-3.730011-2.7979965c-2.8429871,0-5.9290009,1.0830002-8.9059906,6.3269958
		c-1.0449982-4.6240005-4.1670074-6.6439972-8.5289993-6.6439972c-7.1560059,0-15.151001,7.5810013-18.6620026,17.4619942
		C52.2809982,83.9417877,42.8044968,96.681778,30.0469971,96.681778c-11.5789948,0-17.6904984-9.6499939-17.6904984-24.8970032
		c0-22.0119896,16.1352997-39.9974976,28.1030045-39.9974976c5.7226944,0,8.456398,3.6506062,8.456398,9.2485065
		c0,6.7770004-3.7787018,9.9290009-3.7787018,12.5089951c0,0.7910004,0.6562042,1.5700073,1.9561996,1.5700073
		c5.2005997,0,11.3236008-6.1210022,11.3236008-14.4690018c0-8.3474045-6.7669983-14.4560032-18.7350998-14.4560032
		C19.9017029,26.1897831,0,46.1217842,0,71.6637878c0,20.3209991,10.0116005,32.5749969,27.3253021,32.5749969
		c11.8098984,0,22.1251984-9.1999969,27.6896973-19.9320068c0.6320038,8.8950043,4.6660004,13.5429993,10.814003,13.5429993
		c5.4669952,0,9.8899994-3.2610016,13.2669907-8.9919891c1.3010101,5.9989929,4.7510071,8.9309998,9.2340088,8.9309998
		c5.1399994,0,9.4409943-3.2610016,13.5359955-9.3210144c-0.0610046,4.7580109,1.0200043,9.2360077,5.1390076,9.2360077
		c1.9440002,0,4.2649994-0.4499969,4.6779938-2.154007c4.3370056-17.9599915,15.0540009-32.6229897,18.3339996-32.6229897
		c0.9720001,0,1.2389984,0.9369965,1.2389984,2.0439949c0,4.8800049-3.4380035,14.8820038-3.4380035,21.2709961
		c0,6.8990021,2.928009,11.4620056,8.9790039,11.4620056c6.7070007,0,13.5230103-8.2259979,18.0670013-20.2480011
		c1.4210052,11.2310028,4.4949951,20.2969971,9.3070068,20.2969971c5.9049988,0,16.3899994-12.447998,22.7449951-25.6269989
		c2.4900055,0.3160095,6.2330017,0.2310028,9.8289948-2.3119965c-1.5309906,3.8820038-2.4299927,8.1289978-2.4299927,12.375
		c0,12.2299957,5.8320007,15.6609955,10.8499908,15.6609955c5.4550018,0,9.878006-3.2610016,13.2680206-8.9919891
		c1.117981,5.17099,3.9729919,8.9189911,9.2219849,8.9189911C235.8680115,97.7767792,243,89.3687744,243,82.4687805
		C243,80.6437836,242.2219849,79.5367737,241.3110046,79.5367737z M70.8349991,91.0717773
		c-3.3170013,0-4.6179962-3.345993-4.6179962-8.3349915c0-8.6640015,5.9179993-23.132,12.1749954-23.132
		c2.7340088,0,3.7660065,3.223999,3.7660065,7.1669884C82.1580048,75.5697784,76.5329971,91.0717773,70.8349991,91.0717773z
		 M184.4490051,65.2137833c-1.980011-2.3599968-2.6970062-5.5730019-2.6970062-8.4319954
		c0-3.529007,1.2879944-6.5110016,2.8309937-6.5110016c1.5430145,0,2.0170135,1.5219955,2.0170135,3.6389999
		C186.6000061,57.4507866,185.3359985,62.6217842,184.4490051,65.2137833z M210.17099,91.0717773
		c-3.3169861,0-4.6169891-3.8450012-4.6169891-8.3349915c0-8.3600006,5.9170074-23.132,12.2230072-23.132
		c2.7330017,0,3.7049866,3.1999969,3.7049866,7.1669884C221.4819946,75.5697784,215.95401,91.0717773,210.17099,91.0717773z"/>
	
		<radialGradient id="SVGID_00000103251026264022205380000008663180415274572420_" cx="-562.324646" cy="909.7467041" r="1" gradientTransform="matrix(71.5028076 -57.6785965 -39.451561 -48.907177 76202.421875 12163.2363281)" gradientUnits="userSpaceOnUse">
		<stop  offset="0" style="stop-color:#6420FF"/>
		<stop  offset="1" style="stop-color:#6420FF;stop-opacity:0"/>
	</radialGradient>
	<path style="fill:url(#SVGID_00000103251026264022205380000008663180415274572420_);" d="M241.3110046,79.5367737
		c-0.4129944,0-0.7900085,0.2670135-0.9840088,0.8270111c-2.4909973,7.1190033-5.8559875,11.3529968-8.6260071,11.3529968
		c-1.59198,0-2.2359924-1.776001-2.2359924-4.5630035c0-6.9720001,4.1669922-21.7569962,6.2690125-28.4979973
		c0.242981-0.8159943,0.401001-1.5459976,0.401001-2.1659927c0-1.9600067-1.0690002-2.9210052-3.7180176-2.9210052
		c-2.8549805,0-5.9289856,1.1200027-8.9179993,6.3639984c-1.0319824-4.6240005-4.1549988-6.6439972-8.5169983-6.6439972
		c-5.0419922,0-9.9140015,3.2490005-13.923996,8.5179977c-4.0090027,5.2689934-8.7229919,6.9970055-12.2709961,6.1450005
		c2.5509949-6.253994,3.4989929-10.9269981,3.4989929-14.3950005c0-5.4389954-2.6849976-8.7249985-7.022995-8.7249985
		c-6.5970001,0-10.3999939,6.3030014-10.3999939,12.9349976c0,5.1230011,2.3199921,10.3920021,7.4229889,12.9480019
		c-4.276001,9.6860046-10.5209961,18.446991-12.8909912,18.446991c-3.0620117,0-3.9609985-15.0039978-3.7900085-25.7359886
		c0.1090088-6.1579971,0.6190033-6.473999,0.6190033-8.3359985c0-1.0709991-0.6920013-1.8010025-3.4750061-1.8010025
		c-6.4879913,0-8.4929962,5.5-8.79599,11.8159981c-0.0980072,2.3970032-0.473999,4.7819977-1.1179962,7.0939941
		C150.125,81.8847809,144.5359955,89.234787,140.8910065,89.234787c-1.6880035,0-2.1500092-1.6910095-2.1500092-3.9060059
		c0-6.9730072,3.9000092-15.6849976,3.9000092-23.1199989c0-5.4639969-2.3940125-8.9199982-6.901001-8.9199982
		c-5.3100128,0-12.3320007,6.3280029-18.9790039,18.1799965c2.1880035-9.0779991,3.0870056-17.8629951-3.3890076-17.8629951
		c-1.4099884,0.0240021-2.7829895,0.3769989-4.0219879,1.0459976c-0.8500061,0.4020004-1.3730011,1.2779999-1.3120117,2.215004
		c0.6190033,9.6619911-7.776001,34.4119911-15.7339935,34.4119911c-1.4459991,0-2.151001-1.5690002-2.151001-4.1009979
		c0-6.9839935,4.1549988-21.7320023,6.2449951-28.4859962c0.2669983-0.8759995,0.4130096-1.6309967,0.4130096-2.288002
		c0-1.848999-1.1419983-2.7979965-3.730011-2.7979965c-2.8429871,0-5.9290009,1.0830002-8.9059906,6.3269958
		c-1.0449982-4.6240005-4.1670074-6.6439972-8.5289993-6.6439972c-7.1560059,0-15.151001,7.5810013-18.6620026,17.4619942
		C52.2809982,83.9417877,42.8044968,96.681778,30.0469971,96.681778c-11.5789948,0-17.6904984-9.6499939-17.6904984-24.8970032
		c0-22.0119896,16.1352997-39.9974976,28.1030045-39.9974976c5.7226944,0,8.456398,3.6506062,8.456398,9.2485065
		c0,6.7770004-3.7787018,9.9290009-3.7787018,12.5089951c0,0.7910004,0.6562042,1.5700073,1.9561996,1.5700073
		c5.2005997,0,11.3236008-6.1210022,11.3236008-14.4690018c0-8.3474045-6.7669983-14.4560032-18.7350998-14.4560032
		C19.9017029,26.1897831,0,46.1217842,0,71.6637878c0,20.3209991,10.0116005,32.5749969,27.3253021,32.5749969
		c11.8098984,0,22.1251984-9.1999969,27.6896973-19.9320068c0.6320038,8.8950043,4.6660004,13.5429993,10.814003,13.5429993
		c5.4669952,0,9.8899994-3.2610016,13.2669907-8.9919891c1.3010101,5.9989929,4.7510071,8.9309998,9.2340088,8.9309998
		c5.1399994,0,9.4409943-3.2610016,13.5359955-9.3210144c-0.0610046,4.7580109,1.0200043,9.2360077,5.1390076,9.2360077
		c1.9440002,0,4.2649994-0.4499969,4.6779938-2.154007c4.3370056-17.9599915,15.0540009-32.6229897,18.3339996-32.6229897
		c0.9720001,0,1.2389984,0.9369965,1.2389984,2.0439949c0,4.8800049-3.4380035,14.8820038-3.4380035,21.2709961
		c0,6.8990021,2.928009,11.4620056,8.9790039,11.4620056c6.7070007,0,13.5230103-8.2259979,18.0670013-20.2480011
		c1.4210052,11.2310028,4.4949951,20.2969971,9.3070068,20.2969971c5.9049988,0,16.3899994-12.447998,22.7449951-25.6269989
		c2.4900055,0.3160095,6.2330017,0.2310028,9.8289948-2.3119965c-1.5309906,3.8820038-2.4299927,8.1289978-2.4299927,12.375
		c0,12.2299957,5.8320007,15.6609955,10.8499908,15.6609955c5.4550018,0,9.878006-3.2610016,13.2680206-8.9919891
		c1.117981,5.17099,3.9729919,8.9189911,9.2219849,8.9189911C235.8680115,97.7767792,243,89.3687744,243,82.4687805
		C243,80.6437836,242.2219849,79.5367737,241.3110046,79.5367737z M70.8349991,91.0717773
		c-3.3170013,0-4.6179962-3.345993-4.6179962-8.3349915c0-8.6640015,5.9179993-23.132,12.1749954-23.132
		c2.7340088,0,3.7660065,3.223999,3.7660065,7.1669884C82.1580048,75.5697784,76.5329971,91.0717773,70.8349991,91.0717773z
		 M184.4490051,65.2137833c-1.980011-2.3599968-2.6970062-5.5730019-2.6970062-8.4319954
		c0-3.529007,1.2879944-6.5110016,2.8309937-6.5110016c1.5430145,0,2.0170135,1.5219955,2.0170135,3.6389999
		C186.6000061,57.4507866,185.3359985,62.6217842,184.4490051,65.2137833z M210.17099,91.0717773
		c-3.3169861,0-4.6169891-3.8450012-4.6169891-8.3349915c0-8.3600006,5.9170074-23.132,12.2230072-23.132
		c2.7330017,0,3.7049866,3.1999969,3.7049866,7.1669884C221.4819946,75.5697784,215.95401,91.0717773,210.17099,91.0717773z"/>
	
		<radialGradient id="SVGID_00000126315749489309290040000005025239423032652967_" cx="-562.0541382" cy="911.7679443" r="1" gradientTransform="matrix(95.1349335 -46.7272491 -31.9802418 -65.1105804 82636.46875 33206.6875)" gradientUnits="userSpaceOnUse">
		<stop  offset="0" style="stop-color:#6420FF"/>
		<stop  offset="1" style="stop-color:#6420FF;stop-opacity:0"/>
	</radialGradient>
	<path style="fill:url(#SVGID_00000126315749489309290040000005025239423032652967_);" d="M241.3110046,79.5367737
		c-0.4129944,0-0.7900085,0.2670135-0.9840088,0.8270111c-2.4909973,7.1190033-5.8559875,11.3529968-8.6260071,11.3529968
		c-1.59198,0-2.2359924-1.776001-2.2359924-4.5630035c0-6.9720001,4.1669922-21.7569962,6.2690125-28.4979973
		c0.242981-0.8159943,0.401001-1.5459976,0.401001-2.1659927c0-1.9600067-1.0690002-2.9210052-3.7180176-2.9210052
		c-2.8549805,0-5.9289856,1.1200027-8.9179993,6.3639984c-1.0319824-4.6240005-4.1549988-6.6439972-8.5169983-6.6439972
		c-5.0419922,0-9.9140015,3.2490005-13.923996,8.5179977c-4.0090027,5.2689934-8.7229919,6.9970055-12.2709961,6.1450005
		c2.5509949-6.253994,3.4989929-10.9269981,3.4989929-14.3950005c0-5.4389954-2.6849976-8.7249985-7.022995-8.7249985
		c-6.5970001,0-10.3999939,6.3030014-10.3999939,12.9349976c0,5.1230011,2.3199921,10.3920021,7.4229889,12.9480019
		c-4.276001,9.6860046-10.5209961,18.446991-12.8909912,18.446991c-3.0620117,0-3.9609985-15.0039978-3.7900085-25.7359886
		c0.1090088-6.1579971,0.6190033-6.473999,0.6190033-8.3359985c0-1.0709991-0.6920013-1.8010025-3.4750061-1.8010025
		c-6.4879913,0-8.4929962,5.5-8.79599,11.8159981c-0.0980072,2.3970032-0.473999,4.7819977-1.1179962,7.0939941
		C150.125,81.8847809,144.5359955,89.234787,140.8910065,89.234787c-1.6880035,0-2.1500092-1.6910095-2.1500092-3.9060059
		c0-6.9730072,3.9000092-15.6849976,3.9000092-23.1199989c0-5.4639969-2.3940125-8.9199982-6.901001-8.9199982
		c-5.3100128,0-12.3320007,6.3280029-18.9790039,18.1799965c2.1880035-9.0779991,3.0870056-17.8629951-3.3890076-17.8629951
		c-1.4099884,0.0240021-2.7829895,0.3769989-4.0219879,1.0459976c-0.8500061,0.4020004-1.3730011,1.2779999-1.3120117,2.215004
		c0.6190033,9.6619911-7.776001,34.4119911-15.7339935,34.4119911c-1.4459991,0-2.151001-1.5690002-2.151001-4.1009979
		c0-6.9839935,4.1549988-21.7320023,6.2449951-28.4859962c0.2669983-0.8759995,0.4130096-1.6309967,0.4130096-2.288002
		c0-1.848999-1.1419983-2.7979965-3.730011-2.7979965c-2.8429871,0-5.9290009,1.0830002-8.9059906,6.3269958
		c-1.0449982-4.6240005-4.1670074-6.6439972-8.5289993-6.6439972c-7.1560059,0-15.151001,7.5810013-18.6620026,17.4619942
		C52.2809982,83.9417877,42.8044968,96.681778,30.0469971,96.681778c-11.5789948,0-17.6904984-9.6499939-17.6904984-24.8970032
		c0-22.0119896,16.1352997-39.9974976,28.1030045-39.9974976c5.7226944,0,8.456398,3.6506062,8.456398,9.2485065
		c0,6.7770004-3.7787018,9.9290009-3.7787018,12.5089951c0,0.7910004,0.6562042,1.5700073,1.9561996,1.5700073
		c5.2005997,0,11.3236008-6.1210022,11.3236008-14.4690018c0-8.3474045-6.7669983-14.4560032-18.7350998-14.4560032
		C19.9017029,26.1897831,0,46.1217842,0,71.6637878c0,20.3209991,10.0116005,32.5749969,27.3253021,32.5749969
		c11.8098984,0,22.1251984-9.1999969,27.6896973-19.9320068c0.6320038,8.8950043,4.6660004,13.5429993,10.814003,13.5429993
		c5.4669952,0,9.8899994-3.2610016,13.2669907-8.9919891c1.3010101,5.9989929,4.7510071,8.9309998,9.2340088,8.9309998
		c5.1399994,0,9.4409943-3.2610016,13.5359955-9.3210144c-0.0610046,4.7580109,1.0200043,9.2360077,5.1390076,9.2360077
		c1.9440002,0,4.2649994-0.4499969,4.6779938-2.154007c4.3370056-17.9599915,15.0540009-32.6229897,18.3339996-32.6229897
		c0.9720001,0,1.2389984,0.9369965,1.2389984,2.0439949c0,4.8800049-3.4380035,14.8820038-3.4380035,21.2709961
		c0,6.8990021,2.928009,11.4620056,8.9790039,11.4620056c6.7070007,0,13.5230103-8.2259979,18.0670013-20.2480011
		c1.4210052,11.2310028,4.4949951,20.2969971,9.3070068,20.2969971c5.9049988,0,16.3899994-12.447998,22.7449951-25.6269989
		c2.4900055,0.3160095,6.2330017,0.2310028,9.8289948-2.3119965c-1.5309906,3.8820038-2.4299927,8.1289978-2.4299927,12.375
		c0,12.2299957,5.8320007,15.6609955,10.8499908,15.6609955c5.4550018,0,9.878006-3.2610016,13.2680206-8.9919891
		c1.117981,5.17099,3.9729919,8.9189911,9.2219849,8.9189911C235.8680115,97.7767792,243,89.3687744,243,82.4687805
		C243,80.6437836,242.2219849,79.5367737,241.3110046,79.5367737z M70.8349991,91.0717773
		c-3.3170013,0-4.6179962-3.345993-4.6179962-8.3349915c0-8.6640015,5.9179993-23.132,12.1749954-23.132
		c2.7340088,0,3.7660065,3.223999,3.7660065,7.1669884C82.1580048,75.5697784,76.5329971,91.0717773,70.8349991,91.0717773z
		 M184.4490051,65.2137833c-1.980011-2.3599968-2.6970062-5.5730019-2.6970062-8.4319954
		c0-3.529007,1.2879944-6.5110016,2.8309937-6.5110016c1.5430145,0,2.0170135,1.5219955,2.0170135,3.6389999
		C186.6000061,57.4507866,185.3359985,62.6217842,184.4490051,65.2137833z M210.17099,91.0717773
		c-3.3169861,0-4.6169891-3.8450012-4.6169891-8.3349915c0-8.3600006,5.9170074-23.132,12.2230072-23.132
		c2.7330017,0,3.7049866,3.1999969,3.7049866,7.1669884C221.4819946,75.5697784,215.95401,91.0717773,210.17099,91.0717773z"/>
	
		<radialGradient id="SVGID_00000054967903009877179890000010913407490226976926_" cx="-563.5144653" cy="916.2113647" r="1" gradientTransform="matrix(206.5501709 45.7536278 56.192379 -253.6748505 64933.2460938 258235.984375)" gradientUnits="userSpaceOnUse">
		<stop  offset="0" style="stop-color:#00C4CC;stop-opacity:0.725916"/>
		<stop  offset="0" style="stop-color:#00C4CC"/>
		<stop  offset="1" style="stop-color:#00C4CC;stop-opacity:0"/>
	</radialGradient>
	<path style="fill:url(#SVGID_00000054967903009877179890000010913407490226976926_);" d="M241.3110046,79.5367737
		c-0.4129944,0-0.7900085,0.2670135-0.9840088,0.8270111c-2.4909973,7.1190033-5.8559875,11.3529968-8.6260071,11.3529968
		c-1.59198,0-2.2359924-1.776001-2.2359924-4.5630035c0-6.9720001,4.1669922-21.7569962,6.2690125-28.4979973
		c0.242981-0.8159943,0.401001-1.5459976,0.401001-2.1659927c0-1.9600067-1.0690002-2.9210052-3.7180176-2.9210052
		c-2.8549805,0-5.9289856,1.1200027-8.9179993,6.3639984c-1.0319824-4.6240005-4.1549988-6.6439972-8.5169983-6.6439972
		c-5.0419922,0-9.9140015,3.2490005-13.923996,8.5179977c-4.0090027,5.2689934-8.7229919,6.9970055-12.2709961,6.1450005
		c2.5509949-6.253994,3.4989929-10.9269981,3.4989929-14.3950005c0-5.4389954-2.6849976-8.7249985-7.022995-8.7249985
		c-6.5970001,0-10.3999939,6.3030014-10.3999939,12.9349976c0,5.1230011,2.3199921,10.3920021,7.4229889,12.9480019
		c-4.276001,9.6860046-10.5209961,18.446991-12.8909912,18.446991c-3.0620117,0-3.9609985-15.0039978-3.7900085-25.7359886
		c0.1090088-6.1579971,0.6190033-6.473999,0.6190033-8.3359985c0-1.0709991-0.6920013-1.8010025-3.4750061-1.8010025
		c-6.4879913,0-8.4929962,5.5-8.79599,11.8159981c-0.0980072,2.3970032-0.473999,4.7819977-1.1179962,7.0939941
		C150.125,81.8847809,144.5359955,89.234787,140.8910065,89.234787c-1.6880035,0-2.1500092-1.6910095-2.1500092-3.9060059
		c0-6.9730072,3.9000092-15.6849976,3.9000092-23.1199989c0-5.4639969-2.3940125-8.9199982-6.901001-8.9199982
		c-5.3100128,0-12.3320007,6.3280029-18.9790039,18.1799965c2.1880035-9.0779991,3.0870056-17.8629951-3.3890076-17.8629951
		c-1.4099884,0.0240021-2.7829895,0.3769989-4.0219879,1.0459976c-0.8500061,0.4020004-1.3730011,1.2779999-1.3120117,2.215004
		c0.6190033,9.6619911-7.776001,34.4119911-15.7339935,34.4119911c-1.4459991,0-2.151001-1.5690002-2.151001-4.1009979
		c0-6.9839935,4.1549988-21.7320023,6.2449951-28.4859962c0.2669983-0.8759995,0.4130096-1.6309967,0.4130096-2.288002
		c0-1.848999-1.1419983-2.7979965-3.730011-2.7979965c-2.8429871,0-5.9290009,1.0830002-8.9059906,6.3269958
		c-1.0449982-4.6240005-4.1670074-6.6439972-8.5289993-6.6439972c-7.1560059,0-15.151001,7.5810013-18.6620026,17.4619942
		C52.2809982,83.9417877,42.8044968,96.681778,30.0469971,96.681778c-11.5789948,0-17.6904984-9.6499939-17.6904984-24.8970032
		c0-22.0119896,16.1352997-39.9974976,28.1030045-39.9974976c5.7226944,0,8.456398,3.6506062,8.456398,9.2485065
		c0,6.7770004-3.7787018,9.9290009-3.7787018,12.5089951c0,0.7910004,0.6562042,1.5700073,1.9561996,1.5700073
		c5.2005997,0,11.3236008-6.1210022,11.3236008-14.4690018c0-8.3474045-6.7669983-14.4560032-18.7350998-14.4560032
		C19.9017029,26.1897831,0,46.1217842,0,71.6637878c0,20.3209991,10.0116005,32.5749969,27.3253021,32.5749969
		c11.8098984,0,22.1251984-9.1999969,27.6896973-19.9320068c0.6320038,8.8950043,4.6660004,13.5429993,10.814003,13.5429993
		c5.4669952,0,9.8899994-3.2610016,13.2669907-8.9919891c1.3010101,5.9989929,4.7510071,8.9309998,9.2340088,8.9309998
		c5.1399994,0,9.4409943-3.2610016,13.5359955-9.3210144c-0.0610046,4.7580109,1.0200043,9.2360077,5.1390076,9.2360077
		c1.9440002,0,4.2649994-0.4499969,4.6779938-2.154007c4.3370056-17.9599915,15.0540009-32.6229897,18.3339996-32.6229897
		c0.9720001,0,1.2389984,0.9369965,1.2389984,2.0439949c0,4.8800049-3.4380035,14.8820038-3.4380035,21.2709961
		c0,6.8990021,2.928009,11.4620056,8.9790039,11.4620056c6.7070007,0,13.5230103-8.2259979,18.0670013-20.2480011
		c1.4210052,11.2310028,4.4949951,20.2969971,9.3070068,20.2969971c5.9049988,0,16.3899994-12.447998,22.7449951-25.6269989
		c2.4900055,0.3160095,6.2330017,0.2310028,9.8289948-2.3119965c-1.5309906,3.8820038-2.4299927,8.1289978-2.4299927,12.375
		c0,12.2299957,5.8320007,15.6609955,10.8499908,15.6609955c5.4550018,0,9.878006-3.2610016,13.2680206-8.9919891
		c1.117981,5.17099,3.9729919,8.9189911,9.2219849,8.9189911C235.8680115,97.7767792,243,89.3687744,243,82.4687805
		C243,80.6437836,242.2219849,79.5367737,241.3110046,79.5367737z M70.8349991,91.0717773
		c-3.3170013,0-4.6179962-3.345993-4.6179962-8.3349915c0-8.6640015,5.9179993-23.132,12.1749954-23.132
		c2.7340088,0,3.7660065,3.223999,3.7660065,7.1669884C82.1580048,75.5697784,76.5329971,91.0717773,70.8349991,91.0717773z
		 M184.4490051,65.2137833c-1.980011-2.3599968-2.6970062-5.5730019-2.6970062-8.4319954
		c0-3.529007,1.2879944-6.5110016,2.8309937-6.5110016c1.5430145,0,2.0170135,1.5219955,2.0170135,3.6389999
		C186.6000061,57.4507866,185.3359985,62.6217842,184.4490051,65.2137833z M210.17099,91.0717773
		c-3.3169861,0-4.6169891-3.8450012-4.6169891-8.3349915c0-8.3600006,5.9170074-23.132,12.2230072-23.132
		c2.7330017,0,3.7049866,3.1999969,3.7049866,7.1669884C221.4819946,75.5697784,215.95401,91.0717773,210.17099,91.0717773z"/>
	<path d="M293.5138855,97.6609879V66.3075485h23.1549988V54.896225h-23.1549988v-16.950798h30.9656677V26.5341034h-44.2050171
		v71.1822662h13.2393494V97.6609879z M328.800354,26.4233322h11.9098816v71.1822586H328.800354V26.4233322z M377.1045837,72.0132217
		c0,11.4113235-3.1575012,16.7845993-9.8048706,16.7845993s-9.8048706-5.317894-9.8048706-16.7845993
		s3.1575012-16.7846069,9.8048706-16.7846069C373.9470825,55.2285957,377.1045837,60.5464973,377.1045837,72.0132217z
		 M345.5849609,72.0132217c0,16.2860565,8.1430359,26.6448822,21.7147522,26.6448822s21.7147522-10.3588257,21.7147522-26.6448822
		s-8.1430359-26.644886-21.7147522-26.644886S345.5849609,55.7271652,345.5849609,72.0132217z M421.9189453,46.3654366v37.0036888
		c-1.9942017,2.3819733-5.9826355,5.4286804-11.1343384,5.4286804c-4.0438232,0-6.1488342-2.1603928-6.1488342-9.0847321V46.3654175
		h-11.965271v35.1202774c0,10.4696045,4.8193359,17.1723709,14.7904053,17.1723709
		c5.8718262,0,10.9681702-3.3790817,15.3997498-6.4811935v5.5394745h10.9681702V46.4207993h-11.9098816V46.3654366z
		 M452.4968567,97.6609879V66.4737473c0-1.2740784,5.2070923-8.3092155,11.1343384-8.3092155
		c0.886322,0,1.5510559,0,2.105011,0.1107941V45.3683357c-7.0905457,0.2215767-11.1343689,3.6560593-14.0148926,9.7494812
		h-0.1661682v-8.7523651h-10.9681702v51.2955513h11.9098816V97.6609879z M481.6898804,46.3654366h-11.9098816v51.2955513h11.9098816
		V46.3654366z M481.6898804,36.8929443V25.4816227h-11.9098816v11.4113216H481.6898804z M522.2388306,53.1790009
		c-4.3207397-5.2071037-10.9681396-7.8106651-17.615509-7.8106651c-8.641571,0-16.5076294,5.3179016-16.5076294,14.9011879
		c0,17.8371201,24.9830017,14.6796112,24.9830017,23.4873734c0,3.4344864-2.8805237,5.816452-7.0905151,5.816452
		c-5.0963135,0-8.8631592-3.4344864-11.6328735-7.4228973l-7.9768677,6.0934219
		c4.4315796,6.702774,10.9681702,10.3588333,18.9450378,10.3588333c10.469574,0,18.3356628-4.7085571,18.3356628-15.3997421
		c0-18.7234192-24.9830322-15.0119781-24.9830322-23.7643471c0-3.046711,2.1049805-5.0409241,6.7027588-5.0409241
		c3.7668457,0,6.9243164,2.7697372,9.3063354,5.4286804L522.2388306,53.1790009L522.2388306,53.1790009z M540.2421265,97.6609879
		V60.6572762c1.9942627-2.3819656,5.982666-5.4286804,11.1343994-5.4286804c4.0437622,0,6.1488037,2.1603928,6.1488037,9.0847359
		v33.3476562h11.9098511V62.5407104c0-10.4696045-4.8193359-17.1723747-14.7904053-17.1723747
		c-5.8718262,0-10.746582,3.3790855-14.4026489,6.4811935V26.4233398h-11.9098511v71.1822662h11.9098511V97.6609879z"/>
	<path class="st6" d="M601.1763916,22.3795128l11.4113159,3.3790836l-0.3877563,2.1050014l-11.9099121-1.3294792
		l9.2509766,7.5336914l-1.1079102,1.6618423l-10.4142456-5.7056618l5.5394897,10.5249977l-1.6064453,1.1078949l-7.5336914-9.1955338
		l1.218689,11.7990761l-1.9942017,0.3877716l-3.4898682-11.4113235l-3.3790894,11.4113235l-2.1049805-0.3877716l1.218689-11.7990837
		l-7.4229126,9.1955223l-1.7172241-1.1078949l5.6502686-10.5250034l-10.4696045,5.7056599l-1.1079102-1.6618423l9.3063354-7.5336895
		l-11.9098511,1.2740822l-0.3878174-2.1050034l11.2451782-3.3790836l-11.2451782-3.3790836l0.3878174-2.1050014
		l11.9098511,1.2740803l-9.3063354-7.5336905l1.1079102-1.6618423l10.4696045,5.7056618l-5.6502686-10.5250044l1.7172241-1.1078954
		l7.4229126,9.1955338l-1.218689-11.7990847L586.7737427,0l3.3790894,11.4113235L593.6427002,0l1.9942017,0.3877616
		l-1.218689,11.7990847l7.5336914-9.1955338l1.6064453,1.1078954l-5.5394897,10.5250044l10.4142456-5.7056618l1.1079102,1.6618423
		l-9.2509766,7.6445112l11.9099121-1.2740803l0.3877563,2.1050034
		C612.5877075,19.0004292,601.1763916,22.3795128,601.1763916,22.3795128z"/>
</g>
</svg>
